<?xml version="1.0" encoding="UTF-8"?><svg xmlns="http://www.w3.org/2000/svg" viewBox="0 0 499 209.88"><defs><style>.c{letter-spacing:-.04em;}.d{font-size:50.63px;}.d,.e,.f{fill:#fff;}.d,.f{font-family:SourceSansRoman-Bold, 'Source Sans Variable';font-variation-settings:'wght' 700;font-weight:700;}.g,.e,.f{stroke:#fff;}.g,.e,.f,.h{stroke-miterlimit:10;}.g,.h{fill:#231f20;}.i{letter-spacing:-.03em;}.j{letter-spacing:0em;}.k{letter-spacing:-.03em;}.l{letter-spacing:0em;}.f{font-size:182.03px;}.h{stroke:#231f20;}.m{letter-spacing:-.02em;}.n{letter-spacing:0em;}</style></defs><g id="a"><text class="f" transform="translate(134.61 151.58)"><tspan class="c" x="0" y="0">T</tspan><tspan class="n" x="93.56" y="0">r</tspan><tspan x="164.19" y="0">ee</tspan></text><path class="e" d="M71.22,135.35s-22.7,30.91-51.26,4.7c0,0-16.83-11.74-3.91-43.43,0,0,7.04-9,15.65-10.96,0,0-5.48-44.38,16.43-52.71,0,0,16.43-17.73,50.48-6.38s24.26,57.52,24.26,57.52c0,0,35.22,17.22,12.91,51.26,0,0-5.87,19.17-41.09,10.17l-13.09-9.68-6.48-4.79-3.91,4.3Z"/><path class="e" d="M81.78,147.87l6.86-6.82,6.05,4.48-11.35,8.24.39,46.54s-7.43,7.83-12.13,0v-27.89l-21.91-21.82,6.51-3.02,15.99,15.95-.98-28.17,3.91-4.3,6.48,4.79.17,12.03Z"/><text class="d" transform="translate(170.08 195.3) scale(1.05 1)"><tspan x="0" y="0">Ph</tspan><tspan class="k" x="59.08" y="0">o</tspan><tspan class="m" x="85.87" y="0">t</tspan><tspan x="104.34" y="0">og</tspan><tspan class="i" x="159.48" y="0">r</tspan><tspan class="l" x="178.21" y="0">a</tspan><tspan class="j" x="204.89" y="0">p</tspan><tspan class="l" x="233.5" y="0">hy</tspan></text></g><g id="b"><path class="h" d="M72.2,131.05v-49.7s8.8-4.3,9.2,1.96.22,52.53.22,52.53l-6.48-4.79h-2.93Z"/><path class="h" d="M89.61,139.26l28.57-28.17s7.43.39,3.52,5.09-29.2,27.72-29.2,27.72l-2.89-4.63Z"/><path class="g" d="M49.7,150.6l6.51-3.02-19.82-18.48s-7.83-1.57-5.48,1.96,18.78,19.55,18.78,19.55Z"/></g></svg>